<svg width="79" height="34" viewBox="0 0 79 34" fill="none" xmlns="http://www.w3.org/2000/svg">
<path d="M9.55 30C5.51667 28.4 2.78333 26.3667 1.35 23.9C1.35 20.2333 2.43333 16.2333 4.6 11.9C6.76667 7.56667 9.2 4.7 11.9 3.3C13.3333 3.3 14.6667 3.38333 15.9 3.55C20.0333 3.35 23.4 2.93333 26 2.3L27.4 2C26.0667 6.4 25 11.0833 24.2 16.05C22.8333 15.45 21.3833 14.6 19.85 13.5C18.3167 12.4 17.0667 11.3 16.1 10.2C13.3 14.1667 11.6333 18.4667 11.1 23.1L17.7 21.35C17.7667 20.15 17.9333 18.9167 18.2 17.65C20.5 18.2833 23.2667 18.6 26.5 18.6C25.6333 20.4667 24.3333 24.05 22.6 29.35L21.7 32C20.1667 31.4333 19.0167 29.8167 18.25 27.15C15.85 28.45 12.95 29.4 9.55 30Z" fill="#DCE1E9"/>
<path d="M35.2824 30C31.2491 28.4 28.5158 26.3667 27.0824 23.9C27.0824 20.2333 28.1658 16.2333 30.3324 11.9C32.4991 7.56667 34.9324 4.7 37.6324 3.3C39.0658 3.3 40.3991 3.38333 41.6324 3.55C45.7658 3.35 49.1324 2.93333 51.7324 2.3L53.1324 2C51.7991 6.4 50.7324 11.0833 49.9324 16.05C48.5658 15.45 47.1158 14.6 45.5824 13.5C44.0491 12.4 42.7991 11.3 41.8324 10.2C39.0324 14.1667 37.3658 18.4667 36.8324 23.1L43.4324 21.35C43.4991 20.15 43.6658 18.9167 43.9324 17.65C46.2324 18.2833 48.9991 18.6 52.2324 18.6C51.3658 20.4667 50.0658 24.05 48.3324 29.35L47.4324 32C45.8991 31.4333 44.7491 29.8167 43.9824 27.15C41.5824 28.45 38.6824 29.4 35.2824 30ZM75.4148 3.05C75.3482 4.85 75.3148 6.9 75.3148 9.2C75.3148 11.5 75.4315 14.1833 75.6648 17.25C75.9315 20.2833 76.2482 22.4 76.6148 23.6L77.1648 25.35C74.9315 27.1167 71.8148 29.0333 67.8148 31.1C67.8482 29.9 67.8648 28.7167 67.8648 27.55C67.8648 26.3833 67.8482 25.25 67.8148 24.15C66.4815 24.3833 65.1815 24.5 63.9148 24.5C62.6815 24.5 61.6648 24.4833 60.8648 24.45C60.3982 25.7833 59.7482 27.8167 58.9148 30.55C57.7148 29.95 56.3982 29.0333 54.9648 27.8C53.5315 26.5333 52.4148 25.2833 51.6148 24.05C52.6482 23.0167 53.5982 21.55 54.4648 19.65C56.3315 15.6833 58.0315 10.9833 59.5648 5.55C66.7648 5.01667 72.0482 4.18333 75.4148 3.05ZM66.7648 10.85C65.4982 12.75 63.9648 16.0667 62.1648 20.8C62.8648 20.8333 64.6982 20.85 67.6648 20.85C67.4648 17.3833 67.2148 14.45 66.9148 12.05L66.7648 10.85Z" fill="#66C3FF"/>
<path d="M9.55 30L9.18126 30.9295L9.44469 31.034L9.72379 30.9848L9.55 30ZM1.35 23.9H0.35V24.1694L0.485375 24.4024L1.35 23.9ZM4.6 11.9L5.49443 12.3472L5.49443 12.3472L4.6 11.9ZM11.9 3.3V2.3H11.6562L11.4397 2.41225L11.9 3.3ZM15.9 3.55L15.7661 4.54099L15.8568 4.55326L15.9483 4.54883L15.9 3.55ZM26 2.3L25.7905 1.3222L25.7769 1.32511L25.7633 1.32841L26 2.3ZM27.4 2L28.357 2.29001L28.8489 0.66682L27.1905 1.0222L27.4 2ZM24.2 16.05L23.798 16.9656L24.9817 17.4853L25.1873 16.209L24.2 16.05ZM19.85 13.5L19.2671 14.3125L19.2671 14.3125L19.85 13.5ZM16.1 10.2L16.8512 9.53988L16.0142 8.58748L15.283 9.62332L16.1 10.2ZM11.1 23.1L10.1066 22.9856L9.93887 24.4424L11.3563 24.0666L11.1 23.1ZM17.7 21.35L17.9563 22.3166L18.6582 22.1305L18.6985 21.4055L17.7 21.35ZM18.2 17.65L18.4655 16.6859L17.4405 16.4036L17.2215 17.444L18.2 17.65ZM26.5 18.6L27.407 19.0211L28.0668 17.6H26.5V18.6ZM22.6 29.35L23.5469 29.6716L23.5505 29.6608L22.6 29.35ZM21.7 32L21.3534 32.938L22.3166 33.294L22.6469 32.3216L21.7 32ZM18.25 27.15L19.2111 26.8737L18.8674 25.6783L17.7737 26.2707L18.25 27.15ZM9.91874 29.0705C5.99065 27.5122 3.48987 25.5922 2.21463 23.3976L0.485375 24.4024C2.0768 27.1411 5.04269 29.2878 9.18126 30.9295L9.91874 29.0705ZM2.35 23.9C2.35 20.4302 3.37579 16.5845 5.49443 12.3472L3.70557 11.4528C1.49087 15.8822 0.35 20.0364 0.35 23.9H2.35ZM5.49443 12.3472C7.61839 8.09929 9.9297 5.44807 12.3603 4.18775L11.4397 2.41225C8.4703 3.95193 5.91495 7.03404 3.70557 11.4528L5.49443 12.3472ZM11.9 4.3C13.2951 4.3 14.5832 4.38114 15.7661 4.54099L16.0339 2.55901C14.7501 2.38552 13.3716 2.3 11.9 2.3V4.3ZM15.9483 4.54883C20.1148 4.34723 23.5511 3.92577 26.2367 3.27159L25.7633 1.32841C23.2489 1.94089 19.9519 2.35277 15.8517 2.55117L15.9483 4.54883ZM26.2095 3.2778L27.6095 2.9778L27.1905 1.0222L25.7905 1.3222L26.2095 3.2778ZM26.443 1.70999C25.0955 6.15671 24.0192 10.8841 23.2127 15.891L25.1873 16.209C25.9808 11.2826 27.0378 6.64328 28.357 2.29001L26.443 1.70999ZM24.602 15.1344C23.3132 14.5685 21.9238 13.757 20.4329 12.6875L19.2671 14.3125C20.8429 15.443 22.3535 16.3315 23.798 16.9656L24.602 15.1344ZM20.4329 12.6875C18.9446 11.6197 17.7558 10.5692 16.8512 9.53988L15.3488 10.8601C16.3776 12.0308 17.6888 13.1803 19.2671 14.3125L20.4329 12.6875ZM15.283 9.62332C12.3905 13.721 10.6599 18.1789 10.1066 22.9856L12.0934 23.2144C12.6068 18.7544 14.2095 14.6123 16.917 10.7767L15.283 9.62332ZM11.3563 24.0666L17.9563 22.3166L17.4437 20.3834L10.8437 22.1334L11.3563 24.0666ZM18.6985 21.4055C18.7621 20.2598 18.9215 19.0768 19.1786 17.856L17.2215 17.444C16.9451 18.7565 16.7712 20.0402 16.7015 21.2945L18.6985 21.4055ZM17.9345 18.6141C20.3455 19.278 23.2065 19.6 26.5 19.6V17.6C23.3269 17.6 20.6545 17.2887 18.4655 16.6859L17.9345 18.6141ZM25.593 18.1789C24.6978 20.1069 23.3812 23.7443 21.6495 29.0392L23.5505 29.6608C25.2855 24.3557 26.5688 20.8264 27.407 19.0211L25.593 18.1789ZM21.6531 29.0284L20.7531 31.6784L22.6469 32.3216L23.5469 29.6716L21.6531 29.0284ZM22.0467 31.062C20.9701 30.6642 19.9503 29.4449 19.2111 26.8737L17.2889 27.4263C18.083 30.1885 19.3632 32.2025 21.3534 32.938L22.0467 31.062ZM17.7737 26.2707C15.4894 27.508 12.6971 28.4292 9.37622 29.0152L9.72379 30.9848C13.2029 30.3708 16.2106 29.392 18.7263 28.0293L17.7737 26.2707ZM35.2824 30L34.9137 30.9295L35.1771 31.034L35.4562 30.9848L35.2824 30ZM27.0824 23.9H26.0824V24.1694L26.2178 24.4024L27.0824 23.9ZM30.3324 11.9L31.2268 12.3472L31.2268 12.3472L30.3324 11.9ZM37.6324 3.3V2.3H37.3886L37.1721 2.41225L37.6324 3.3ZM41.6324 3.55L41.4985 4.54099L41.5893 4.55326L41.6808 4.54883L41.6324 3.55ZM51.7324 2.3L51.5229 1.3222L51.5093 1.32511L51.4958 1.32841L51.7324 2.3ZM53.1324 2L54.0894 2.29001L54.5813 0.66682L52.9229 1.0222L53.1324 2ZM49.9324 16.05L49.5304 16.9656L50.7141 17.4853L50.9197 16.209L49.9324 16.05ZM45.5824 13.5L44.9995 14.3125L44.9995 14.3125L45.5824 13.5ZM41.8324 10.2L42.5836 9.53988L41.7466 8.58748L41.0155 9.62332L41.8324 10.2ZM36.8324 23.1L35.839 22.9856L35.6713 24.4424L37.0887 24.0666L36.8324 23.1ZM43.4324 21.35L43.6887 22.3166L44.3906 22.1305L44.4309 21.4055L43.4324 21.35ZM43.9324 17.65L44.1979 16.6859L43.1729 16.4036L42.9539 17.444L43.9324 17.65ZM52.2324 18.6L53.1394 19.0211L53.7992 17.6H52.2324V18.6ZM48.3324 29.35L49.2794 29.6716L49.2829 29.6608L48.3324 29.35ZM47.4324 32L47.0858 32.938L48.0491 33.294L48.3793 32.3216L47.4324 32ZM43.9824 27.15L44.9435 26.8737L44.5998 25.6783L43.5061 26.2707L43.9824 27.15ZM35.6512 29.0705C31.7231 27.5122 29.2223 25.5922 27.947 23.3976L26.2178 24.4024C27.8092 27.1411 30.7751 29.2878 34.9137 30.9295L35.6512 29.0705ZM28.0824 23.9C28.0824 20.4302 29.1082 16.5845 31.2268 12.3472L29.438 11.4528C27.2233 15.8822 26.0824 20.0364 26.0824 23.9H28.0824ZM31.2268 12.3472C33.3508 8.09929 35.6621 5.44807 38.0927 4.18775L37.1721 2.41225C34.2027 3.95193 31.6474 7.03404 29.438 11.4528L31.2268 12.3472ZM37.6324 4.3C39.0275 4.3 40.3156 4.38114 41.4985 4.54099L41.7663 2.55901C40.4826 2.38552 39.104 2.3 37.6324 2.3V4.3ZM41.6808 4.54883C45.8472 4.34723 49.2835 3.92577 51.9691 3.27159L51.4958 1.32841C48.9813 1.94089 45.6843 2.35277 41.5841 2.55117L41.6808 4.54883ZM51.942 3.2778L53.342 2.9778L52.9229 1.0222L51.5229 1.3222L51.942 3.2778ZM52.1754 1.70999C50.8279 6.15671 49.7516 10.8841 48.9451 15.891L50.9197 16.209C51.7132 11.2826 52.7703 6.64328 54.0894 2.29001L52.1754 1.70999ZM50.3344 15.1344C49.0456 14.5685 47.6562 13.757 46.1653 12.6875L44.9995 14.3125C46.5753 15.443 48.0859 16.3315 49.5304 16.9656L50.3344 15.1344ZM46.1653 12.6875C44.677 11.6197 43.4882 10.5692 42.5836 9.53988L41.0813 10.8601C42.11 12.0308 43.4212 13.1803 44.9995 14.3125L46.1653 12.6875ZM41.0155 9.62332C38.1229 13.721 36.3923 18.1789 35.839 22.9856L37.8259 23.2144C38.3392 18.7544 39.9419 14.6123 42.6494 10.7767L41.0155 9.62332ZM37.0887 24.0666L43.6887 22.3166L43.1761 20.3834L36.5761 22.1334L37.0887 24.0666ZM44.4309 21.4055C44.4945 20.2598 44.654 19.0768 44.911 17.856L42.9539 17.444C42.6776 18.7565 42.5036 20.0402 42.434 21.2945L44.4309 21.4055ZM43.6669 18.6141C46.0779 19.278 48.9389 19.6 52.2324 19.6V17.6C49.0593 17.6 46.387 17.2887 44.1979 16.6859L43.6669 18.6141ZM51.3254 18.1789C50.4303 20.1069 49.1136 23.7443 47.382 29.0392L49.2829 29.6608C51.0179 24.3557 52.3013 20.8264 53.1394 19.0211L51.3254 18.1789ZM47.3855 29.0284L46.4855 31.6784L48.3793 32.3216L49.2793 29.6716L47.3855 29.0284ZM47.7791 31.062C46.7025 30.6642 45.6827 29.4449 44.9435 26.8737L43.0214 27.4263C43.8155 30.1885 45.0956 32.2025 47.0858 32.938L47.7791 31.062ZM43.5061 26.2707C41.2219 27.508 38.4295 28.4292 35.1086 29.0152L35.4562 30.9848C38.9353 30.3708 41.943 29.392 44.4587 28.0293L43.5061 26.2707ZM75.4148 3.05L76.4142 3.08701L76.4677 1.64042L75.0958 2.10226L75.4148 3.05ZM75.6648 17.25L74.6677 17.3259L74.6687 17.3376L75.6648 17.25ZM76.6148 23.6L75.6585 23.8922L75.6609 23.8998L76.6148 23.6ZM77.1648 25.35L77.7852 26.1343L78.3253 25.7071L78.1188 25.0502L77.1648 25.35ZM67.8148 31.1L66.8152 31.0722L66.7682 32.7664L68.2739 31.9884L67.8148 31.1ZM67.8148 24.15L68.8144 24.1197L68.7794 22.966L67.6425 23.165L67.8148 24.15ZM60.8648 24.45L60.9065 23.4509L60.1659 23.42L59.921 24.1196L60.8648 24.45ZM58.9148 30.55L58.4676 31.4444L59.5262 31.9737L59.8714 30.8416L58.9148 30.55ZM54.9648 27.8L54.3026 28.5494L54.3126 28.558L54.9648 27.8ZM51.6148 24.05L50.9077 23.3429L50.3354 23.9152L50.7759 24.5942L51.6148 24.05ZM54.4648 19.65L53.56 19.2242L53.555 19.235L54.4648 19.65ZM59.5648 5.55L59.491 4.55273L58.7926 4.60446L58.6024 5.2784L59.5648 5.55ZM66.7648 10.85L67.7571 10.726L67.4237 8.05889L65.9328 10.2953L66.7648 10.85ZM62.1648 20.8L61.2301 20.4446L60.7401 21.7333L62.1173 21.7989L62.1648 20.8ZM67.6648 20.85V21.85H68.7242L68.6632 20.7924L67.6648 20.85ZM66.9148 12.05L67.9071 11.926L67.9071 11.926L66.9148 12.05ZM74.4155 3.01299C74.3483 4.82814 74.3148 6.89084 74.3148 9.2H76.3148C76.3148 6.90915 76.3481 4.87186 76.4142 3.08701L74.4155 3.01299ZM74.3148 9.2C74.3148 11.5321 74.4331 14.2418 74.6677 17.3259L76.662 17.1741C76.43 14.1249 76.3148 11.4679 76.3148 9.2H74.3148ZM74.6687 17.3376C74.9353 20.37 75.2579 22.5813 75.6585 23.8922L77.5712 23.3078C77.2384 22.2187 76.9278 20.1967 76.661 17.1624L74.6687 17.3376ZM75.6609 23.8998L76.2109 25.6498L78.1188 25.0502L77.5688 23.3002L75.6609 23.8998ZM76.5444 24.5657C74.3817 26.2766 71.3276 28.1595 67.3558 30.2116L68.2739 31.9884C72.3021 29.9072 75.4813 27.9568 77.7852 26.1343L76.5444 24.5657ZM68.8145 31.1278C68.848 29.9188 68.8648 28.7262 68.8648 27.55H66.8648C66.8648 28.7071 66.8483 29.8812 66.8152 31.0722L68.8145 31.1278ZM68.8648 27.55C68.8648 26.3738 68.848 25.2304 68.8144 24.1197L66.8153 24.1803C66.8483 25.2696 66.8648 26.3928 66.8648 27.55H68.8648ZM67.6425 23.165C66.3622 23.389 65.1199 23.5 63.9148 23.5V25.5C65.2431 25.5 66.6008 25.3776 67.9872 25.135L67.6425 23.165ZM63.9148 23.5C62.6889 23.5 61.6873 23.4834 60.9065 23.4509L60.8232 25.4491C61.6424 25.4833 62.6742 25.5 63.9148 25.5V23.5ZM59.921 24.1196C59.4473 25.473 58.7925 27.5223 57.9583 30.2584L59.8714 30.8416C60.7039 28.111 61.349 26.0937 61.8087 24.7804L59.921 24.1196ZM59.3621 29.6556C58.2589 29.104 57.0112 28.2416 55.6171 27.042L54.3126 28.558C55.7851 29.825 57.1708 30.796 58.4676 31.4444L59.3621 29.6556ZM55.627 27.0507C54.2424 25.8271 53.1922 24.6442 52.4538 23.5058L50.7759 24.5942C51.6375 25.9225 52.8206 27.2396 54.3026 28.5493L55.627 27.0507ZM52.322 24.7571C53.4676 23.6114 54.4779 22.0309 55.3747 20.065L53.555 19.235C52.7184 21.0691 51.8287 22.4219 50.9077 23.3429L52.322 24.7571ZM55.3697 20.0758C57.2653 16.0476 58.983 11.2936 60.5273 5.8216L58.6024 5.2784C57.08 10.6731 55.3977 15.319 53.56 19.2242L55.3697 20.0758ZM59.6387 6.54727C66.855 6.01273 72.2426 5.17303 75.7339 3.99774L75.0958 2.10226C71.8538 3.19363 66.6747 4.0206 59.491 4.55273L59.6387 6.54727ZM65.9328 10.2953C64.5988 12.2963 63.0326 15.7048 61.2301 20.4446L63.0995 21.1554C64.8971 16.4286 66.3975 13.2037 67.5969 11.4047L65.9328 10.2953ZM62.1173 21.7989C62.8467 21.8336 64.708 21.85 67.6648 21.85V19.85C64.6884 19.85 62.883 19.8331 62.2124 19.8011L62.1173 21.7989ZM68.6632 20.7924C68.4624 17.3122 68.2108 14.3552 67.9071 11.926L65.9226 12.174C66.2189 14.5448 66.4673 17.4545 66.6665 20.9076L68.6632 20.7924ZM67.9071 11.926L67.7571 10.726L65.7726 10.974L65.9226 12.174L67.9071 11.926Z" fill="black"/>
</svg>
