<svg width="569" height="880" viewBox="0 0 569 880" fill="none" xmlns="http://www.w3.org/2000/svg">
<rect x="158.63" y="230.63" width="250.74" height="418.74" stroke="#DCE1E9" stroke-width="1.2605"/>
<line x1="158" y1="220.798" x2="408.84" y2="220.798" stroke="#53D8FB" stroke-width="1.2605"/>
<line x1="409.471" y1="216.387" x2="409.471" y2="225.21" stroke="#53D8FB" stroke-width="1.2605"/>
<line x1="158.63" y1="216.387" x2="158.63" y2="225.21" stroke="#53D8FB" stroke-width="1.2605"/>
<line x1="419.487" y1="229.75" x2="419.487" y2="648.75" stroke="#53D8FB" stroke-width="1.2605"/>
<line x1="424" y1="649.38" x2="415" y2="649.38" stroke="#53D8FB" stroke-width="1.2605"/>
<line x1="424" y1="230.38" x2="415" y2="230.38" stroke="#53D8FB" stroke-width="1.2605"/>
<path d="M268.376 212.809C269.264 212.07 269.971 211.455 270.498 210.965C271.025 210.466 271.464 209.948 271.815 209.412C272.166 208.876 272.342 208.349 272.342 207.832C272.342 207.36 272.231 206.99 272.009 206.722C271.787 206.454 271.445 206.32 270.983 206.32C270.521 206.32 270.165 206.477 269.915 206.792C269.666 207.097 269.536 207.517 269.527 208.053H267.642C267.678 206.944 268.007 206.103 268.626 205.53C269.255 204.957 270.049 204.67 271.011 204.67C272.065 204.67 272.873 204.952 273.437 205.516C274.001 206.071 274.283 206.805 274.283 207.721C274.283 208.442 274.089 209.13 273.701 209.787C273.313 210.443 272.869 211.016 272.37 211.506C271.87 211.987 271.219 212.569 270.415 213.253H274.505V214.861H267.655V213.419L268.376 212.809ZM275.645 213.031V211.506L280.179 205.017H282.439V211.339H283.659V213.031H282.439V215H280.498V213.031H275.645ZM280.623 207.097L277.78 211.339H280.623V207.097ZM291.689 206.57H287.197V208.941C287.391 208.7 287.668 208.506 288.029 208.358C288.389 208.201 288.773 208.123 289.18 208.123C289.919 208.123 290.525 208.284 290.996 208.608C291.467 208.932 291.809 209.347 292.022 209.856C292.235 210.355 292.341 210.891 292.341 211.464C292.341 212.527 292.036 213.382 291.426 214.029C290.825 214.676 289.965 215 288.847 215C287.793 215 286.952 214.737 286.323 214.21C285.695 213.683 285.339 212.994 285.256 212.144H287.141C287.225 212.513 287.409 212.809 287.696 213.031C287.992 213.253 288.366 213.364 288.819 213.364C289.364 213.364 289.776 213.193 290.053 212.851C290.33 212.509 290.469 212.056 290.469 211.492C290.469 210.919 290.326 210.484 290.039 210.189C289.762 209.884 289.351 209.731 288.805 209.731C288.417 209.731 288.093 209.828 287.835 210.022C287.576 210.216 287.391 210.475 287.28 210.799H285.422V204.864H291.689V206.57ZM295.981 208.428C296.231 208.076 296.573 207.785 297.007 207.554C297.451 207.314 297.955 207.194 298.519 207.194C299.175 207.194 299.767 207.355 300.294 207.679C300.83 208.003 301.25 208.465 301.555 209.066C301.87 209.657 302.027 210.346 302.027 211.132C302.027 211.917 301.87 212.615 301.555 213.225C301.25 213.826 300.83 214.293 300.294 214.626C299.767 214.958 299.175 215.125 298.519 215.125C297.955 215.125 297.456 215.009 297.021 214.778C296.596 214.547 296.249 214.256 295.981 213.905V218.661H294.04V207.318H295.981V208.428ZM300.044 211.132C300.044 210.669 299.947 210.272 299.753 209.939C299.568 209.597 299.318 209.338 299.004 209.163C298.699 208.987 298.366 208.899 298.006 208.899C297.654 208.899 297.322 208.992 297.007 209.176C296.702 209.352 296.453 209.611 296.259 209.953C296.074 210.295 295.981 210.697 295.981 211.159C295.981 211.621 296.074 212.024 296.259 212.366C296.453 212.708 296.702 212.971 297.007 213.156C297.322 213.332 297.654 213.419 298.006 213.419C298.366 213.419 298.699 213.327 299.004 213.142C299.318 212.957 299.568 212.694 299.753 212.352C299.947 212.01 300.044 211.603 300.044 211.132ZM307.68 215L306.1 212.615L304.699 215H302.619L305.129 211.145L302.592 207.318H304.782L306.349 209.689L307.763 207.318H309.843L307.32 211.145L309.871 215H307.68Z" fill="white"/>
<path d="M441.662 442.031V440.506L446.196 434.017H448.456V440.339H449.676V442.031H448.456V444H446.515V442.031H441.662ZM446.64 436.097L443.797 440.339H446.64V436.097ZM450.912 438.814C450.912 437.215 451.199 435.963 451.772 435.057C452.354 434.151 453.315 433.698 454.656 433.698C455.996 433.698 456.953 434.151 457.526 435.057C458.108 435.963 458.399 437.215 458.399 438.814C458.399 440.423 458.108 441.684 457.526 442.6C456.953 443.515 455.996 443.972 454.656 443.972C453.315 443.972 452.354 443.515 451.772 442.6C451.199 441.684 450.912 440.423 450.912 438.814ZM456.486 438.814C456.486 438.13 456.44 437.557 456.347 437.095C456.264 436.624 456.088 436.24 455.82 435.944C455.562 435.648 455.173 435.5 454.656 435.5C454.138 435.5 453.745 435.648 453.477 435.944C453.218 436.24 453.043 436.624 452.95 437.095C452.867 437.557 452.825 438.13 452.825 438.814C452.825 439.517 452.867 440.108 452.95 440.589C453.033 441.061 453.209 441.444 453.477 441.74C453.745 442.026 454.138 442.17 454.656 442.17C455.173 442.17 455.566 442.026 455.834 441.74C456.102 441.444 456.278 441.061 456.361 440.589C456.444 440.108 456.486 439.517 456.486 438.814ZM459.876 438.814C459.876 437.215 460.162 435.963 460.735 435.057C461.318 434.151 462.279 433.698 463.62 433.698C464.96 433.698 465.917 434.151 466.49 435.057C467.072 435.963 467.363 437.215 467.363 438.814C467.363 440.423 467.072 441.684 466.49 442.6C465.917 443.515 464.96 443.972 463.62 443.972C462.279 443.972 461.318 443.515 460.735 442.6C460.162 441.684 459.876 440.423 459.876 438.814ZM465.45 438.814C465.45 438.13 465.404 437.557 465.311 437.095C465.228 436.624 465.052 436.24 464.784 435.944C464.525 435.648 464.137 435.5 463.62 435.5C463.102 435.5 462.709 435.648 462.441 435.944C462.182 436.24 462.006 436.624 461.914 437.095C461.831 437.557 461.789 438.13 461.789 438.814C461.789 439.517 461.831 440.108 461.914 440.589C461.997 441.061 462.173 441.444 462.441 441.74C462.709 442.026 463.102 442.17 463.62 442.17C464.137 442.17 464.53 442.026 464.798 441.74C465.066 441.444 465.242 441.061 465.325 440.589C465.408 440.108 465.45 439.517 465.45 438.814ZM471.003 437.428C471.252 437.076 471.594 436.785 472.029 436.554C472.472 436.314 472.976 436.194 473.54 436.194C474.196 436.194 474.788 436.355 475.315 436.679C475.851 437.003 476.272 437.465 476.577 438.066C476.891 438.657 477.048 439.346 477.048 440.132C477.048 440.917 476.891 441.615 476.577 442.225C476.272 442.826 475.851 443.293 475.315 443.626C474.788 443.958 474.196 444.125 473.54 444.125C472.976 444.125 472.477 444.009 472.043 443.778C471.617 443.547 471.271 443.256 471.003 442.905V447.661H469.062V436.318H471.003V437.428ZM475.065 440.132C475.065 439.669 474.968 439.272 474.774 438.939C474.589 438.597 474.34 438.338 474.025 438.163C473.72 437.987 473.388 437.899 473.027 437.899C472.676 437.899 472.343 437.992 472.029 438.176C471.724 438.352 471.474 438.611 471.28 438.953C471.095 439.295 471.003 439.697 471.003 440.159C471.003 440.621 471.095 441.024 471.28 441.366C471.474 441.708 471.724 441.971 472.029 442.156C472.343 442.332 472.676 442.419 473.027 442.419C473.388 442.419 473.72 442.327 474.025 442.142C474.34 441.957 474.589 441.694 474.774 441.352C474.968 441.01 475.065 440.603 475.065 440.132ZM482.702 444L481.121 441.615L479.72 444H477.641L480.15 440.145L477.613 436.318H479.804L481.37 438.689L482.785 436.318H484.865L482.341 440.145L484.892 444H482.702Z" fill="white"/>
<path d="M261.123 440.059C261.123 438.501 261.47 437.109 262.166 435.884C262.877 434.644 263.838 433.683 265.048 433.003C266.273 432.307 267.642 431.959 269.155 431.959C270.924 431.959 272.475 432.413 273.806 433.32C275.137 434.228 276.067 435.483 276.597 437.087H272.944C272.581 436.33 272.066 435.763 271.401 435.385C270.75 435.007 269.994 434.818 269.132 434.818C268.209 434.818 267.385 435.037 266.659 435.476C265.948 435.899 265.388 436.504 264.98 437.291C264.586 438.077 264.39 439 264.39 440.059C264.39 441.103 264.586 442.025 264.98 442.827C265.388 443.613 265.948 444.226 266.659 444.665C267.385 445.088 268.209 445.3 269.132 445.3C269.994 445.3 270.75 445.111 271.401 444.733C272.066 444.339 272.581 443.765 272.944 443.008H276.597C276.067 444.627 275.137 445.89 273.806 446.797C272.49 447.69 270.939 448.136 269.155 448.136C267.642 448.136 266.273 447.796 265.048 447.115C263.838 446.419 262.877 445.459 262.166 444.234C261.47 443.008 261.123 441.617 261.123 440.059ZM278.493 441.67C278.493 440.399 278.742 439.272 279.242 438.289C279.756 437.306 280.444 436.55 281.306 436.02C282.184 435.491 283.159 435.226 284.233 435.226C285.171 435.226 285.988 435.415 286.684 435.793C287.395 436.171 287.962 436.648 288.385 437.223V435.43H291.584V448H288.385V446.162C287.977 446.752 287.41 447.244 286.684 447.637C285.973 448.015 285.148 448.204 284.21 448.204C283.152 448.204 282.184 447.932 281.306 447.387C280.444 446.843 279.756 446.079 279.242 445.096C278.742 444.097 278.493 442.955 278.493 441.67ZM288.385 441.715C288.385 440.944 288.234 440.286 287.931 439.741C287.629 439.182 287.221 438.758 286.706 438.471C286.192 438.168 285.64 438.017 285.05 438.017C284.46 438.017 283.916 438.161 283.416 438.448C282.917 438.735 282.509 439.159 282.191 439.718C281.889 440.263 281.737 440.913 281.737 441.67C281.737 442.426 281.889 443.092 282.191 443.666C282.509 444.226 282.917 444.657 283.416 444.96C283.931 445.262 284.475 445.413 285.05 445.413C285.64 445.413 286.192 445.27 286.706 444.982C287.221 444.68 287.629 444.256 287.931 443.712C288.234 443.152 288.385 442.487 288.385 441.715ZM297.863 437.382C298.272 436.716 298.801 436.194 299.452 435.816C300.117 435.438 300.873 435.249 301.72 435.249V438.584H300.881C299.883 438.584 299.126 438.818 298.612 439.287C298.113 439.756 297.863 440.573 297.863 441.738V448H294.687V435.43H297.863V437.382ZM303.043 441.67C303.043 440.399 303.293 439.272 303.792 438.289C304.306 437.306 305.002 436.55 305.879 436.02C306.757 435.491 307.732 435.226 308.806 435.226C309.623 435.226 310.402 435.408 311.143 435.771C311.884 436.118 312.474 436.587 312.913 437.177V431.21H316.135V448H312.913V446.139C312.52 446.76 311.967 447.259 311.257 447.637C310.546 448.015 309.721 448.204 308.783 448.204C307.725 448.204 306.757 447.932 305.879 447.387C305.002 446.843 304.306 446.079 303.792 445.096C303.293 444.097 303.043 442.955 303.043 441.67ZM312.936 441.715C312.936 440.944 312.784 440.286 312.482 439.741C312.179 439.182 311.771 438.758 311.257 438.471C310.742 438.168 310.19 438.017 309.6 438.017C309.01 438.017 308.466 438.161 307.967 438.448C307.467 438.735 307.059 439.159 306.741 439.718C306.439 440.263 306.288 440.913 306.288 441.67C306.288 442.426 306.439 443.092 306.741 443.666C307.059 444.226 307.467 444.657 307.967 444.96C308.481 445.262 309.025 445.413 309.6 445.413C310.19 445.413 310.742 445.27 311.257 444.982C311.771 444.68 312.179 444.256 312.482 443.712C312.784 443.152 312.936 442.487 312.936 441.715Z" fill="white"/>
<path d="M269.899 301.098C269.545 301.098 269.251 300.991 269.017 300.776C268.793 300.552 268.681 300.277 268.681 299.95C268.681 299.623 268.793 299.353 269.017 299.138C269.251 298.914 269.545 298.802 269.899 298.802C270.245 298.802 270.529 298.914 270.753 299.138C270.977 299.353 271.089 299.623 271.089 299.95C271.089 300.277 270.977 300.552 270.753 300.776C270.529 300.991 270.245 301.098 269.899 301.098ZM274.628 294.364C274.88 294.009 275.225 293.715 275.664 293.482C276.112 293.239 276.621 293.118 277.19 293.118C277.853 293.118 278.45 293.281 278.982 293.608C279.523 293.935 279.948 294.401 280.256 295.008C280.573 295.605 280.732 296.301 280.732 297.094C280.732 297.887 280.573 298.592 280.256 299.208C279.948 299.815 279.523 300.286 278.982 300.622C278.45 300.958 277.853 301.126 277.19 301.126C276.621 301.126 276.117 301.009 275.678 300.776C275.249 300.543 274.899 300.249 274.628 299.894V304.696H272.668V293.244H274.628V294.364ZM278.73 297.094C278.73 296.627 278.632 296.226 278.436 295.89C278.249 295.545 277.997 295.283 277.68 295.106C277.372 294.929 277.036 294.84 276.672 294.84C276.317 294.84 275.981 294.933 275.664 295.12C275.356 295.297 275.104 295.559 274.908 295.904C274.721 296.249 274.628 296.655 274.628 297.122C274.628 297.589 274.721 297.995 274.908 298.34C275.104 298.685 275.356 298.951 275.664 299.138C275.981 299.315 276.317 299.404 276.672 299.404C277.036 299.404 277.372 299.311 277.68 299.124C277.997 298.937 278.249 298.671 278.436 298.326C278.632 297.981 278.73 297.57 278.73 297.094ZM286.454 293.132C287.378 293.132 288.125 293.426 288.694 294.014C289.264 294.593 289.548 295.405 289.548 296.45V301H287.588V296.716C287.588 296.1 287.434 295.629 287.126 295.302C286.818 294.966 286.398 294.798 285.866 294.798C285.325 294.798 284.896 294.966 284.578 295.302C284.27 295.629 284.116 296.1 284.116 296.716V301H282.156V293.244H284.116V294.21C284.378 293.874 284.709 293.613 285.11 293.426C285.521 293.23 285.969 293.132 286.454 293.132ZM294.45 293.118C295.029 293.118 295.538 293.235 295.976 293.468C296.415 293.692 296.76 293.986 297.012 294.35V293.244H298.986V301.056C298.986 301.775 298.842 302.414 298.552 302.974C298.263 303.543 297.829 303.991 297.25 304.318C296.672 304.654 295.972 304.822 295.15 304.822C294.049 304.822 293.144 304.565 292.434 304.052C291.734 303.539 291.338 302.839 291.244 301.952H293.19C293.293 302.307 293.512 302.587 293.848 302.792C294.194 303.007 294.609 303.114 295.094 303.114C295.664 303.114 296.126 302.941 296.48 302.596C296.835 302.26 297.012 301.747 297.012 301.056V299.852C296.76 300.216 296.41 300.519 295.962 300.762C295.524 301.005 295.02 301.126 294.45 301.126C293.797 301.126 293.2 300.958 292.658 300.622C292.117 300.286 291.688 299.815 291.37 299.208C291.062 298.592 290.908 297.887 290.908 297.094C290.908 296.31 291.062 295.615 291.37 295.008C291.688 294.401 292.112 293.935 292.644 293.608C293.186 293.281 293.788 293.118 294.45 293.118ZM297.012 297.122C297.012 296.646 296.919 296.24 296.732 295.904C296.546 295.559 296.294 295.297 295.976 295.12C295.659 294.933 295.318 294.84 294.954 294.84C294.59 294.84 294.254 294.929 293.946 295.106C293.638 295.283 293.386 295.545 293.19 295.89C293.004 296.226 292.91 296.627 292.91 297.094C292.91 297.561 293.004 297.971 293.19 298.326C293.386 298.671 293.638 298.937 293.946 299.124C294.264 299.311 294.6 299.404 294.954 299.404C295.318 299.404 295.659 299.315 295.976 299.138C296.294 298.951 296.546 298.69 296.732 298.354C296.919 298.009 297.012 297.598 297.012 297.122Z" fill="#A50000"/>
<path d="M276.112 590.382C276.206 590.9 276.418 591.3 276.747 591.582C277.089 591.853 277.542 591.988 278.106 591.988C278.836 591.988 279.365 591.688 279.694 591.088C280.024 590.476 280.189 589.453 280.189 588.018C279.918 588.394 279.536 588.688 279.042 588.9C278.559 589.112 278.036 589.218 277.471 589.218C276.718 589.218 276.036 589.065 275.424 588.759C274.824 588.441 274.347 587.976 273.994 587.365C273.642 586.741 273.465 585.988 273.465 585.106C273.465 583.8 273.853 582.765 274.63 582C275.406 581.224 276.465 580.835 277.806 580.835C279.477 580.835 280.653 581.371 281.336 582.441C282.03 583.512 282.377 585.124 282.377 587.276C282.377 588.806 282.242 590.059 281.971 591.035C281.712 592.012 281.259 592.753 280.612 593.259C279.977 593.765 279.106 594.018 278 594.018C277.13 594.018 276.389 593.853 275.777 593.524C275.165 593.182 274.694 592.741 274.365 592.2C274.047 591.647 273.865 591.041 273.818 590.382H276.112ZM277.983 587.206C278.594 587.206 279.077 587.018 279.43 586.641C279.783 586.265 279.959 585.759 279.959 585.124C279.959 584.429 279.771 583.894 279.394 583.518C279.03 583.129 278.53 582.935 277.894 582.935C277.259 582.935 276.753 583.135 276.377 583.535C276.012 583.924 275.83 584.441 275.83 585.088C275.83 585.712 276.006 586.224 276.359 586.624C276.724 587.012 277.265 587.206 277.983 587.206ZM285.676 594.124C285.229 594.124 284.859 593.988 284.565 593.718C284.282 593.435 284.141 593.088 284.141 592.676C284.141 592.265 284.282 591.924 284.565 591.653C284.859 591.371 285.229 591.229 285.676 591.229C286.112 591.229 286.471 591.371 286.753 591.653C287.035 591.924 287.176 592.265 287.176 592.676C287.176 593.088 287.035 593.435 286.753 593.718C286.471 593.988 286.112 594.124 285.676 594.124ZM285.676 586.818C285.229 586.818 284.859 586.682 284.565 586.412C284.282 586.129 284.141 585.782 284.141 585.371C284.141 584.959 284.282 584.618 284.565 584.347C284.859 584.065 285.229 583.924 285.676 583.924C286.112 583.924 286.471 584.065 286.753 584.347C287.035 584.618 287.176 584.959 287.176 585.371C287.176 585.782 287.035 586.129 286.753 586.412C286.471 586.682 286.112 586.818 285.676 586.818ZM288.636 583.412V581.135H292.889V594H290.348V583.412H288.636ZM302 584.347C301.882 583.853 301.676 583.482 301.382 583.235C301.1 582.988 300.688 582.865 300.147 582.865C299.335 582.865 298.735 583.194 298.347 583.853C297.971 584.5 297.776 585.559 297.765 587.029C298.047 586.559 298.459 586.194 299 585.935C299.541 585.665 300.129 585.529 300.765 585.529C301.529 585.529 302.206 585.694 302.794 586.024C303.382 586.353 303.841 586.835 304.171 587.471C304.5 588.094 304.665 588.847 304.665 589.729C304.665 590.565 304.494 591.312 304.153 591.971C303.823 592.618 303.335 593.124 302.688 593.488C302.041 593.853 301.271 594.035 300.376 594.035C299.153 594.035 298.188 593.765 297.482 593.224C296.788 592.682 296.3 591.929 296.018 590.965C295.747 589.988 295.612 588.788 295.612 587.365C295.612 585.212 295.982 583.588 296.723 582.494C297.465 581.388 298.635 580.835 300.235 580.835C301.471 580.835 302.429 581.171 303.112 581.841C303.794 582.512 304.188 583.347 304.294 584.347H302ZM300.2 587.559C299.576 587.559 299.053 587.741 298.629 588.106C298.206 588.471 297.994 589 297.994 589.694C297.994 590.388 298.188 590.935 298.576 591.335C298.976 591.735 299.535 591.935 300.253 591.935C300.888 591.935 301.388 591.741 301.753 591.353C302.129 590.965 302.318 590.441 302.318 589.782C302.318 589.1 302.135 588.559 301.771 588.159C301.418 587.759 300.894 587.559 300.2 587.559Z" fill="white"/>
</svg>
